<svg width="10" height="13" viewBox="0 0 10 13" fill="none" xmlns="http://www.w3.org/2000/svg">
<path d="M8.99922 5.69961H8.19922V3.29961C8.19922 1.53961 6.75922 0.0996094 4.99922 0.0996094C3.23922 0.0996094 1.79922 1.53961 1.79922 3.29961V5.69961H0.999219C0.599219 5.69961 0.199219 6.09961 0.199219 6.49961V12.0996C0.199219 12.4996 0.599219 12.8996 0.999219 12.8996H8.99922C9.39922 12.8996 9.79922 12.4996 9.79922 12.0996V6.49961C9.79922 6.09961 9.39922 5.69961 8.99922 5.69961ZM5.79922 11.2996H4.19922L4.51922 9.53961C4.11922 9.37961 3.79922 8.89961 3.79922 8.49961C3.79922 7.85961 4.35922 7.29961 4.99922 7.29961C5.63922 7.29961 6.19922 7.85961 6.19922 8.49961C6.19922 8.97961 5.95922 9.37961 5.47922 9.53961L5.79922 11.2996ZM6.59922 5.69961H3.39922V3.29961C3.39922 2.41961 4.11922 1.69961 4.99922 1.69961C5.87922 1.69961 6.59922 2.41961 6.59922 3.29961V5.69961Z" fill="#646464"/>
</svg>
